<?xml version="1.0" encoding="UTF-8"?>
<svg id="Layer_1" data-name="Layer 1" xmlns="http://www.w3.org/2000/svg" viewBox="0 0 385.22 44.81">
  <defs>
    <style>
      .cls-1 {
        fill: #231f20;
      }
    </style>
  </defs>
  <path class="cls-1" d="M24.16,34.59c-.39-.72-.98-1.37-1.76-1.95s-1.66-1.04-2.64-1.39-2-.61-3.06-.79c-3.16-.47-6.1-1.49-8.84-3.07-.23-.12-.48-.39-.75-.8s-.4-.8-.4-1.17c0-1.38.23-2.75.69-4.14s1.05-2.46,1.77-3.25c1.16-1.3,3.24-2.43,6.25-3.4s6.39-1.45,10.16-1.45c2.25,0,3.99.17,5.21.52s1.84.88,1.84,1.59c0,1.17-.16,2.08-.48,2.72s-.66,1.07-1.03,1.28-1.01.5-1.93.86c-.98.34-1.84.7-2.57,1.08s-1.35.73-1.86,1.08-.84.52-.96.52c-.16,0-.23-.06-.23-.19,0-.27.28-.67.83-1.21s1.24-1.01,2.05-1.42c.86-.45,1.29-.74,1.29-.87,0-.2-.48-.3-1.43-.3-2.89,0-5.56.26-8.02.77s-4.39,1.2-5.8,2.04-2.12,1.7-2.12,2.58c0,.55.29.93.88,1.16s1.88.61,3.88,1.14,3.79,1.14,5.37,1.83c2.27.97,3.95,1.98,5.04,3.02s1.64,2.22,1.64,3.52c0,.89-.21,1.79-.64,2.68s-1.06,1.72-1.89,2.47-1.78,1.37-2.86,1.85c-.92.39-2.08.76-3.48,1.1s-2.91.61-4.55.81-3.19.29-4.68.29c-2.73,0-4.93-.26-6.6-.77s-2.5-1.3-2.5-2.34c0-.47.28-1.2.84-2.19s1.23-1.66,1.99-2c.67-.27,1.32-.42,1.95-.46s.94.04.94.22c0,.05-.02.09-.07.14s-.1.09-.16.12l-.19.09c-.31.12-.57.22-.76.29s-.35.14-.47.21-.18.17-.18.29c0,.33,1.62.49,4.85.49,2.81,0,5.12-.1,6.91-.3s3.38-.57,4.76-1.1,2.62-1.27,3.75-2.2Z"/>
  <path class="cls-1" d="M61.78,11.84v1.59c0,.66-.13,1.07-.39,1.24s-1.2.63-2.84,1.38-3.2,1.63-4.7,2.65c.58-.84,1.11-1.47,1.58-1.88s1.12-.91,1.93-1.52c-.7-.28-1.68-.42-2.93-.42-1.94,0-4.03.38-6.27,1.15s-4.15,1.68-5.72,2.74-2.36,1.95-2.36,2.67c0,.38.24.68.71.93s1.24.43,2.3.56,2.37.22,3.95.27,3.52.07,5.84.07c1.69,0,2.77.06,3.26.19s.73.41.73.87c0,.58-.29,1.24-.86,1.98s-1.32,1.18-2.26,1.32c-1.45.23-2.61.43-3.47.6s-1.88.44-3.06.83-2.49.95-3.93,1.69c-2.14,1.12-3.81,2.27-5.02,3.42s-1.8,2.18-1.8,3.07c0,.77.43,1.36,1.29,1.79s2.09.64,3.7.64c5.55,0,11.2-2.49,16.95-7.48.03,1.53-.14,2.88-.5,4.04s-1.11,2.28-2.24,3.34c-.94.89-2.31,1.74-4.11,2.55s-3.77,1.46-5.91,1.95-4.14.73-6.01.73c-2.17,0-3.97-.52-5.39-1.56s-2.13-2.42-2.13-4.14c0-1.25.34-2.49,1.03-3.73s1.74-2.42,3.16-3.55,3.22-2.16,5.4-3.08,4.69-1.65,7.54-2.18c.41-.08.61-.2.61-.38,0-.19-.24-.3-.71-.34s-1.35-.07-2.62-.08-2.39-.07-3.36-.16-1.99-.3-3.07-.61c-1.11-.34-1.96-.95-2.57-1.8s-.9-1.81-.9-2.86c0-1.34.48-2.7,1.45-4.05s2.34-2.59,4.1-3.68,3.9-1.97,6.41-2.64,5.25-1,8.24-1c1.72,0,2.92.1,3.6.29s1.07.45,1.18.77.16.92.16,1.79Z"/>
  <path class="cls-1" d="M73.27,25.52l-1.2,1.41c1.39.12,2.63.29,3.73.5s2.11.45,3.04.7,1.75.53,2.45.81c2.47,1.03,3.7,2.47,3.7,4.31,0,1.12-.52,2.23-1.55,3.3s-2.37,2.04-4.02,2.88-3.34,1.5-5.09,1.98-3.32.71-4.75.71c-2.38,0-4.23-.44-5.55-1.32s-1.99-2.09-1.99-3.62c0-1.06.41-2.31,1.22-3.75s2.07-3.23,3.77-5.37c-1.28-.06-2.19-.25-2.72-.57s-.8-.77-.8-1.35c0-.36.1-.63.3-.82s.48-.32.82-.41,1-.19,1.98-.32,2.23-.28,3.76-.47c1.7-2.09,3.23-3.67,4.58-4.72s2.8-1.66,4.35-1.82c.12-.02.26-.02.41-.02s.22.04.22.12c0,.09-.18.34-.53.75s-.92,1.05-1.71,1.95-1.72,1.95-2.8,3.16c2.94-.39,5.34-.84,7.21-1.35s3.28-1.11,4.23-1.82,1.43-1.48,1.43-2.34c0-1.05-.51-1.8-1.52-2.27s-2.57-.7-4.66-.7c-1.16,0-2.48.12-3.97.35s-2.84.5-4.05.8-2.29.61-3.23.95-1.42.58-1.42.74c0,.05.05.09.14.14.77.28,1.15.52,1.15.7,0,.25-1.17.73-3.52,1.44s-3.92,1.07-4.73,1.07c-.58,0-.87-.29-.87-.87,0-.69.63-1.93,1.89-3.71s2.4-2.93,3.43-3.43c.36-.17,1.2-.45,2.51-.82s2.75-.73,4.32-1.08,3.17-.63,4.79-.87,3.06-.35,4.31-.35c2.95,0,5.17.53,6.66,1.58s2.23,2.38,2.23,3.97c0,1.08-.34,2.12-1.02,3.12s-1.74,1.95-3.18,2.84-3.31,1.67-5.61,2.34-5.02,1.19-8.14,1.55ZM70.78,28.55c-.81.97-1.54,1.82-2.17,2.57s-1.09,1.34-1.36,1.8-.41.93-.41,1.39c0,.75.39,1.42,1.16,2s1.89.88,3.34.88c1.34,0,2.78-.24,4.3-.71s2.8-1.1,3.84-1.86,1.56-1.54,1.56-2.32c0-.67-.38-1.23-1.15-1.66s-1.93-.82-3.49-1.16-3.44-.64-5.62-.93Z"/>
  <path class="cls-1" d="M107.44,31.71c-1.88.06-3.25.09-4.12.09-1.34,0-3.2-.03-5.58-.09-.5.55-1.11,1.19-1.83,1.93s-1.4,1.43-2.04,2.06-1.19,1.17-1.65,1.62-.84.82-1.14,1.11c-1.73,1.69-2.86,2.79-3.39,3.3s-1.07.98-1.65,1.39-1.11.62-1.59.62c-.55,0-.82-.25-.82-.75,0-.55.39-1.39,1.17-2.53s1.66-2.15,2.65-3.02,1.79-1.31,2.41-1.31c.17,0,.41.08.73.23l4.45-4.76c-.56-.08-1.3-.13-2.2-.15s-1.52-.09-1.83-.2-.47-.38-.47-.8c0-.67.72-1.73,2.16-3.16.78-.8,1.52-1.3,2.2-1.52s2-.34,3.94-.35c-1.14.16-1.95.34-2.43.55s-.74.53-.79.95h1.25c.38,0,.88,0,1.5-.01s1.07-.02,1.37-.04c2.56-2.5,4.89-4.68,6.98-6.53s4.3-3.61,6.62-5.27,4.79-3.19,7.42-4.58c.52.67.77,1.38.77,2.11,0,.61-.2,1.31-.6,2.11s-1.24,2.29-2.53,4.49-2.6,4.53-3.93,7c.44,0,.8,0,1.09.01s.6.02.93.04c.89,0,1.43.02,1.63.05s.29.19.29.47c0,.12-.12.35-.36.67s-.67.85-1.28,1.59-1.2,1.5-1.78,2.26l-3.45.28c-1.83,3.44-2.74,5.38-2.74,5.81,0,.64.34.96,1.01.96.33,0,1.69-.69,4.08-2.06l-.19,1.24c-1.28.97-2.28,1.73-2.99,2.29s-1.33,1.02-1.85,1.38-1,.64-1.43.82-.86.27-1.3.27c-.52,0-1.02-.24-1.52-.71s-.75-1.15-.75-2.03c0-.36.13-.87.4-1.54s.55-1.3.86-1.91,1.07-2.07,2.31-4.38ZM103.01,26.39l7.59-.14c.89-1.52,1.61-2.74,2.17-3.68s1.16-1.96,1.83-3.06,1.23-2.04,1.71-2.8,1-1.63,1.58-2.6c-1.12.7-2.27,1.48-3.45,2.34s-2.49,1.89-3.96,3.11-2.77,2.34-3.91,3.38-2.33,2.19-3.56,3.46Z"/>
  <path class="cls-1" d="M141.66,34.59c-.39-.72-.98-1.37-1.76-1.95s-1.66-1.04-2.64-1.39-2-.61-3.06-.79c-3.16-.47-6.1-1.49-8.84-3.07-.23-.12-.48-.39-.75-.8s-.4-.8-.4-1.17c0-1.38.23-2.75.69-4.14s1.05-2.46,1.77-3.25c1.16-1.3,3.24-2.43,6.25-3.4s6.39-1.45,10.16-1.45c2.25,0,3.99.17,5.21.52s1.84.88,1.84,1.59c0,1.17-.16,2.08-.48,2.72s-.66,1.07-1.03,1.28-1.01.5-1.93.86c-.98.34-1.84.7-2.57,1.08s-1.35.73-1.86,1.08-.84.52-.96.52c-.16,0-.23-.06-.23-.19,0-.27.28-.67.83-1.21s1.24-1.01,2.05-1.42c.86-.45,1.29-.74,1.29-.87,0-.2-.48-.3-1.43-.3-2.89,0-5.56.26-8.02.77s-4.39,1.2-5.8,2.04-2.12,1.7-2.12,2.58c0,.55.29.93.88,1.16s1.88.61,3.88,1.14,3.79,1.14,5.37,1.83c2.27.97,3.95,1.98,5.04,3.02s1.64,2.22,1.64,3.52c0,.89-.21,1.79-.64,2.68s-1.06,1.72-1.89,2.47-1.78,1.37-2.86,1.85c-.92.39-2.08.76-3.48,1.1s-2.91.61-4.55.81-3.19.29-4.68.29c-2.73,0-4.93-.26-6.6-.77s-2.5-1.3-2.5-2.34c0-.47.28-1.2.84-2.19s1.23-1.66,1.99-2c.67-.27,1.32-.42,1.95-.46s.94.04.94.22c0,.05-.02.09-.07.14s-.1.09-.16.12l-.19.09c-.31.12-.57.22-.76.29s-.35.14-.47.21-.18.17-.18.29c0,.33,1.62.49,4.85.49,2.81,0,5.12-.1,6.91-.3s3.38-.57,4.76-1.1,2.62-1.27,3.75-2.2Z"/>
  <path class="cls-1" d="M167.18,36.7l.77.59c-.2.44-.4.82-.59,1.15s-.41.73-.68,1.2-.47.82-.61,1.05c-1.17,2.05-2.27,3.07-3.3,3.07-.44,0-.81-.17-1.12-.52s-.47-.81-.47-1.41c0-.84.3-2,.9-3.47s1.53-3.28,2.79-5.43,2.84-4.58,4.75-7.3,4.05-5.59,6.45-8.6c-1.38-.2-3.01-.3-4.9-.3-2.17,0-4.59.24-7.25.73s-4.98,1.04-6.96,1.68-2.96,1.1-2.96,1.39c0,.11.04.18.12.22s.21.07.39.09.41.05.69.08c1.83.25,2.74.53,2.74.84,0,.16-.4.23-1.2.22s-1.76-.01-2.88-.01c-.89,0-1.54-.04-1.93-.11s-.66-.2-.8-.4-.2-.5-.2-.9c0-.27.08-.84.23-1.73.3-1.66.75-2.98,1.37-3.98s1.56-1.82,2.84-2.45,3.03-1.14,5.26-1.51c3.75-.64,6.85-.96,9.3-.96,1.81,0,3.24.07,4.29.22s1.82.36,2.31.64.8.56.94.83.31.75.53,1.42l.73,2.16c.05.14.09.25.12.34s.06.18.08.27.04.18.04.26c0,.61-.14,1.16-.41,1.64s-.77,1.21-1.5,2.18-1.26,1.73-1.61,2.27c-4.03,6.55-6.78,11.39-8.25,14.53Z"/>
  <path class="cls-1" d="M184.1,42.05l-1.45-1.05c-.22-.19-.33-.38-.33-.59s.37-.91,1.1-2.11c.53-.86,1.25-2.04,2.14-3.54s1.62-2.73,2.17-3.7,1.21-2.24,2-3.81,1.51-3.11,2.17-4.61c1.52-3.45,2.27-5.66,2.27-6.61,0-1.12-.44-1.69-1.31-1.69-.66,0-1.59.33-2.8,1s-2.46,1.54-3.76,2.61-2.38,2.2-3.23,3.38-1.29,2.2-1.29,3.09c0,.14.04.25.12.32s.22.11.42.11c.38,0,.98-.22,1.83-.66.38-.19.56-.16.56.09s-.59.89-1.78,1.93-2.06,1.56-2.62,1.56c-.48,0-1.16-.42-2.03-1.25s-1.3-1.6-1.3-2.29c0-.27.24-.9.73-1.9s1.15-2.13,1.99-3.39,1.73-2.35,2.67-3.27c1.08-1.08,2.31-2.04,3.69-2.88s2.71-1.5,3.98-1.97,2.3-.7,3.08-.7c1.12,0,2,.43,2.64,1.28s.95,2.04.95,3.57c0,2.03-.8,4.97-2.39,8.81s-4.05,8.34-7.36,13.5c.05.16.1.32.16.5s.09.35.09.5c0,.03-.02.09-.07.18s-.1.18-.16.27-.1.16-.12.19l-1.71,2.81c-.19.33-.38.49-.59.49-.19,0-.34-.06-.47-.19Z"/>
  <path class="cls-1" d="M217.45,31.71c-1.88.06-3.25.09-4.12.09-1.34,0-3.2-.03-5.58-.09-.5.55-1.11,1.19-1.83,1.93s-1.4,1.43-2.04,2.06-1.19,1.17-1.65,1.62-.84.82-1.14,1.11c-1.73,1.69-2.86,2.79-3.39,3.3s-1.07.98-1.65,1.39-1.11.62-1.59.62c-.55,0-.82-.25-.82-.75,0-.55.39-1.39,1.17-2.53s1.66-2.15,2.65-3.02,1.79-1.31,2.41-1.31c.17,0,.41.08.73.23l4.45-4.76c-.56-.08-1.3-.13-2.2-.15s-1.52-.09-1.83-.2-.47-.38-.47-.8c0-.67.72-1.73,2.16-3.16.78-.8,1.52-1.3,2.2-1.52s2-.34,3.94-.35c-1.14.16-1.95.34-2.43.55s-.74.53-.79.95h1.25c.38,0,.88,0,1.5-.01s1.07-.02,1.37-.04c2.56-2.5,4.89-4.68,6.98-6.53s4.3-3.61,6.62-5.27,4.79-3.19,7.42-4.58c.52.67.77,1.38.77,2.11,0,.61-.2,1.31-.6,2.11s-1.24,2.29-2.53,4.49-2.6,4.53-3.93,7c.44,0,.8,0,1.09.01s.6.02.93.04c.89,0,1.43.02,1.63.05s.29.19.29.47c0,.12-.12.35-.36.67s-.67.85-1.28,1.59-1.2,1.5-1.78,2.26l-3.45.28c-1.83,3.44-2.74,5.38-2.74,5.81,0,.64.34.96,1.01.96.33,0,1.69-.69,4.08-2.06l-.19,1.24c-1.28.97-2.28,1.73-2.99,2.29s-1.33,1.02-1.85,1.38-1,.64-1.43.82-.86.27-1.3.27c-.52,0-1.02-.24-1.52-.71s-.75-1.15-.75-2.03c0-.36.13-.87.4-1.54s.55-1.3.86-1.91,1.07-2.07,2.31-4.38ZM213.02,26.39l7.59-.14c.89-1.52,1.61-2.74,2.17-3.68s1.16-1.96,1.83-3.06,1.23-2.04,1.71-2.8,1-1.63,1.58-2.6c-1.12.7-2.27,1.48-3.45,2.34s-2.49,1.89-3.96,3.11-2.77,2.34-3.91,3.38-2.33,2.19-3.56,3.46Z"/>
  <path class="cls-1" d="M232.17,32.3c2.8-4.58,4.89-8.18,6.27-10.82,1.38-2.63,2.07-4.31,2.07-5.03,0-.27-.09-.48-.28-.66s-.41-.26-.66-.26c-.48,0-1.85.47-4.1,1.41-1.86.78-3.22,1.4-4.08,1.86s-2.04,1.12-3.55,1.98-2.37,1.29-2.59,1.29c-.44,0-.66-.3-.66-.91,0-1.16.76-2.71,2.27-4.66s3.55-3.66,6.12-5.13c.31-.2.47-.19.47.05,0,.08-.19.26-.56.54s-.71.57-1,.86-.61.72-.97,1.3c3.28-1.64,5.69-2.8,7.23-3.47,1.54-.67,2.86-1.01,3.95-1.01.95,0,1.7.2,2.25.6s.82.97.82,1.72c0,.66-.26,1.61-.79,2.86s-1.29,2.77-2.29,4.56-2.02,3.56-3.06,5.31-2.92,4.91-5.64,9.49c3.03-3.8,5.82-7.12,8.37-9.96s4.77-5.16,6.66-6.94,3.48-3.12,4.78-4.02,2.25-1.35,2.86-1.35c.22,0,.48.21.77.62s.56.92.8,1.51.35,1.08.35,1.45c0,1.03-.26,2.05-.79,3.07s-1.3,2.23-2.33,3.66c-2.94,3.97-5.08,7.09-6.43,9.38s-2.03,4.12-2.03,5.51c0,1.05.55,1.57,1.64,1.57.5,0,1.09-.19,1.76-.56s1.48-.95,2.41-1.73,1.88-1.63,2.84-2.55l.05,1.83c-1.34,1.38-2.55,2.55-3.61,3.53s-2.07,1.83-3.01,2.57-1.79,1.29-2.54,1.66-1.41.56-1.97.56c-.81,0-1.46-.28-1.96-.83s-.74-1.29-.74-2.19c0-.84.18-1.86.55-3.06s.93-2.57,1.69-4.14,1.7-3.26,2.81-5.09,2.38-3.73,3.79-5.72c1.38-1.97,2.06-3.23,2.06-3.8,0-.33-.17-.49-.52-.49-1.39,0-4.56,2.77-9.52,8.32-.31.34-.86.98-1.63,1.91s-1.56,1.92-2.37,2.96-1.71,2.22-2.71,3.53-2.02,2.63-3.05,3.97c-.48.64-.9.96-1.24.96-.38,0-.87-.3-1.48-.91s-.91-1.05-.91-1.34c0-.33.43-1.15,1.3-2.46s1.57-2.41,2.1-3.3Z"/>
  <path class="cls-1" d="M273.4,20.79l-5.04,2.65c-.78.39-1.3.59-1.57.59-.48,0-.84-.15-1.07-.46s-.34-.78-.34-1.42c0-.73.16-1.58.47-2.54s.67-1.67,1.08-2.12c.42-.47,1.41-1.11,2.96-1.93s3.43-1.64,5.61-2.47,4.47-1.52,6.84-2.06,4.55-.82,6.52-.82c1.38,0,2.39.22,3.05.66s.98,1.59.98,3.47c0,1.02-.35,2.14-1.04,3.39s-1.53,2.45-2.51,3.62-2.79,3.25-5.43,6.23c1.41-.22,2.44-.36,3.09-.42s1.88-.2,3.68-.4c2.08-3,3.76-5.39,5.04-7.18s2.37-3.27,3.26-4.45,1.42-1.86,1.59-2.03c.31-.36.57-.5.79-.41s.32.41.32.97c0,.64-.07,1.16-.2,1.57s-.34.81-.62,1.21-.43.61-.45.64c-.41.67-.99,1.55-1.76,2.64s-1.52,2.16-2.25,3.22-1.57,2.32-2.51,3.77c1.75.06,3.48.29,5.18.68l-4.22,5.72c-1.16-.16-2.7-.23-4.62-.23-.47.94-.83,1.67-1.09,2.2s-.48,1.04-.66,1.51-.27.92-.27,1.32c0,.25.07.58.22,1s.22.65.22.71c0,.31-.23.64-.69,1s-1,.66-1.62.93-1.1.4-1.44.4c-.58,0-.87-.44-.87-1.31,0-1.81.93-4.34,2.79-7.57-2.47.2-5.3.57-8.51,1.1-.92,1.22-1.76,2.38-2.51,3.47s-1.36,2.02-1.84,2.77-.83,1.25-1.05,1.5-.47.38-.74.38c-.45,0-.84-.2-1.15-.59-.14-.16-.23-.31-.27-.47s-.06-.33-.06-.52v-.49c0-.19.1-.46.3-.82s.69-1.07,1.45-2.14,1.33-1.88,1.69-2.43c-.41.05-.93.07-1.57.07-.81,0-1.47-.15-1.98-.45s-.76-.66-.76-1.1c0-.5.13-1.04.4-1.61s.61-1.05,1.03-1.43.84-.57,1.27-.57c.28,0,.62.09,1.01.26l6.05-1.5c3.38-3.66,5.89-6.55,7.55-8.67s2.48-3.49,2.48-4.1c0-.34-.09-.63-.28-.86s-.45-.4-.79-.53-.72-.19-1.16-.19c-.52,0-1.33.14-2.45.42s-2.45.7-4,1.24-3.48,1.3-5.79,2.27c-1.72.7-2.58,1.15-2.58,1.34,0,.22.12.36.35.42s.54.11.9.14.55.09.55.16c0,.06-.09.15-.27.26s-.43.24-.74.4Z"/>
  <path class="cls-1" d="M317.13,17.32c.42-.11.85-.22,1.28-.33s.87-.2,1.31-.28.88-.12,1.3-.12c.91,0,1.68.2,2.33.61s1.13.96,1.45,1.65.48,1.45.48,2.26c0,1.27-.23,2.71-.69,4.35s-1.12,3.29-1.98,4.98-1.87,3.28-3.02,4.78c-1.58,2.03-3.47,3.67-5.68,4.91s-4.24,1.86-6.08,1.86c-1.36,0-2.56-.37-3.6-1.11s-1.85-1.82-2.44-3.23-.88-3.07-.88-4.98c0-2.56.7-5.13,2.1-7.7s3.16-4.9,5.3-6.98,4.29-3.76,6.46-5.02,3.94-1.89,5.3-1.89c1.11,0,1.96.34,2.55,1.02s1.15,1.78,1.66,3.29c-1.45.05-2.72.22-3.8.53s-2.2.77-3.35,1.39ZM311.23,22.08c-1.09,1.17-2.2,2.68-3.32,4.54s-2.02,3.67-2.71,5.45-1.03,3.14-1.03,4.08c0,2.33,1.09,3.49,3.26,3.49,1.52,0,3.47-1.02,5.87-3.07s4.48-4.51,6.26-7.39,2.66-5.5,2.66-7.86c0-1.73-.69-2.6-2.06-2.6-1.06,0-2.36.42-3.89,1.27s-3,2.04-4.41,3.59c-.5.56-1.49,1.94-2.98,4.12.28-1.47,1.06-3.34,2.34-5.6ZM317.37,5.58c-.38,0-.68-.12-.91-.35s-.35-.54-.35-.91c0-.27.19-.76.56-1.49s.83-1.38,1.37-1.96,1.08-.87,1.63-.87c.41,0,.73.11.97.34s.36.54.36.95c0,.67-.43,1.55-1.29,2.65s-1.64,1.64-2.34,1.64ZM324.02,5.58c-.33,0-.62-.1-.87-.3s-.38-.45-.38-.75c0-.34.2-.89.6-1.63s.88-1.41,1.43-2,1.08-.89,1.58-.89c.31,0,.58.11.81.32s.34.49.34.83c0,.7-.39,1.62-1.16,2.74s-1.56,1.69-2.36,1.69Z"/>
  <path class="cls-1" d="M351.75,23.6l.73.73c-1.28,1.61-2.4,2.78-3.36,3.52s-1.67,1.1-2.12,1.1c-.38,0-.56-.34-.56-1.01,0-1.67,1.1-4.25,3.3-7.73,1.86-3.02,2.79-4.7,2.79-5.04,0-.3-.12-.45-.38-.45-.44,0-1.54.98-3.3,2.95s-3.95,4.75-6.54,8.34c-2.94,4-4.95,6.86-6.05,8.58,2.08.2,3.79.46,5.12.79s3.27.84,5.81,1.56,4.41,1.14,5.61,1.27c-1.47,1.67-2.48,2.81-3.04,3.41s-.98.96-1.28,1.09c-.47.2-1.16.21-2.09.04s-2.38-.53-4.38-1.04-3.87-.95-5.61-1.29-3.33-.52-4.77-.52c-.81,0-1.51.09-2.1.28s-1.4.5-2.44.93-1.77.64-2.19.64c-.61,0-.91-.25-.91-.75,0-.28.1-.6.3-.96.52-.83,1.02-1.62,1.5-2.37s1-1.34,1.55-1.76,1.34-.75,2.37-.98,2.39-.36,4.08-.38c2.55-3.91,4.92-7.37,7.12-10.39s4.21-5.57,6.01-7.65,3.39-3.65,4.75-4.72,2.44-1.61,3.23-1.61c.56,0,1,.16,1.31.47s.47.75.47,1.31c0,1.88-1.65,5.76-4.95,11.65Z"/>
  <path class="cls-1" d="M380.27,23.6l.73.73c-1.28,1.61-2.4,2.78-3.36,3.52s-1.67,1.1-2.12,1.1c-.38,0-.56-.34-.56-1.01,0-1.67,1.1-4.25,3.3-7.73,1.86-3.02,2.79-4.7,2.79-5.04,0-.3-.12-.45-.38-.45-.44,0-1.54.98-3.3,2.95s-3.95,4.75-6.54,8.34c-2.94,4-4.95,6.86-6.05,8.58,2.08.2,3.79.46,5.12.79s3.27.84,5.81,1.56,4.41,1.14,5.61,1.27c-1.47,1.67-2.48,2.81-3.04,3.41s-.98.96-1.28,1.09c-.47.2-1.16.21-2.09.04s-2.38-.53-4.38-1.04-3.87-.95-5.61-1.29-3.33-.52-4.77-.52c-.81,0-1.51.09-2.1.28s-1.4.5-2.44.93-1.77.64-2.19.64c-.61,0-.91-.25-.91-.75,0-.28.1-.6.3-.96.52-.83,1.02-1.62,1.5-2.37s1-1.34,1.55-1.76,1.34-.75,2.37-.98,2.39-.36,4.08-.38c2.55-3.91,4.92-7.37,7.12-10.39s4.21-5.57,6.01-7.65,3.39-3.65,4.75-4.72,2.44-1.61,3.23-1.61c.56,0,1,.16,1.31.47s.47.75.47,1.31c0,1.88-1.65,5.76-4.95,11.65Z"/>
</svg>